<svg width="125" height="55" viewBox="0 0 125 55" fill="none" xmlns="http://www.w3.org/2000/svg">
<path d="M2.45188 40.12H1.69188C1.69188 38.8667 2.06521 36.4667 2.81187 32.92C3.58521 29.3733 3.97188 27.36 3.97188 26.88C3.97188 26 3.59854 25.0667 2.85188 24.08L2.49188 23.6L2.53188 23.08C3.97188 22.68 6.27854 22.48 9.45188 22.48C9.82521 22.9867 10.0119 23.8133 10.0119 24.96C12.4119 23.1733 14.3185 22.28 15.7319 22.28C17.5185 22.28 18.5719 23.2 18.8919 25.04C19.6119 24.4533 20.5452 23.8533 21.6919 23.24C22.8652 22.6 23.9052 22.28 24.8119 22.28C25.7452 22.28 26.5185 22.5867 27.1319 23.2C27.7452 23.7867 28.0519 24.6133 28.0519 25.68C28.0519 26.7467 27.7585 28.5067 27.1719 30.96C26.5852 33.4133 26.2919 35.0667 26.2919 35.92C26.2919 36.7467 26.4119 37.16 26.6519 37.16C26.8119 37.16 27.3585 36.9067 28.2919 36.4L28.7319 36.16L29.4519 37.56C28.7585 38.2533 27.8119 38.92 26.6119 39.56C25.4385 40.1733 24.3985 40.48 23.4919 40.48C21.4919 40.48 20.4919 39.3467 20.4919 37.08C20.4919 36.2533 20.7719 34.6 21.3319 32.12C21.9185 29.6133 22.2119 27.9867 22.2119 27.24C22.2119 26.4667 21.9852 26.08 21.5319 26.08C20.7585 26.08 19.8785 26.3733 18.8919 26.96C18.8385 27.4933 18.4652 29.3067 17.7719 32.4C17.1052 35.4933 16.7719 37.8933 16.7719 39.6C15.9985 39.9467 14.1852 40.12 11.3319 40.12C11.2785 39.8267 11.2519 39.12 11.2519 38C11.2519 36.88 11.5585 34.9733 12.1719 32.28C12.8119 29.5867 13.1319 27.88 13.1319 27.16C13.1319 26.44 12.8785 26.08 12.3719 26.08C11.5719 26.08 10.6919 26.4 9.73188 27.04C9.67854 27.28 9.41188 28.4533 8.93188 30.56C7.97188 34.7733 7.49188 37.7733 7.49188 39.56C6.55854 39.9333 4.87854 40.12 2.45188 40.12ZM36.1869 44.32C35.3069 44.8533 34.8669 45.3733 34.8669 45.88C34.8669 46.3867 35.1469 46.64 35.7069 46.64C36.2935 46.64 36.9469 46.36 37.6669 45.8C38.3869 45.2667 38.9869 44.3867 39.4669 43.16C38.1869 43.4 37.0935 43.7867 36.1869 44.32ZM34.2669 40.16C32.0269 40.16 30.9069 38.9333 30.9069 36.48C30.9069 35.8933 31.1735 34.2 31.7069 31.4C32.2402 28.6 32.5069 26.2667 32.5069 24.4C32.5069 24 32.4535 23.6267 32.3469 23.28C33.7869 22.72 35.7602 22.44 38.2669 22.44C38.4002 22.8133 38.4669 23.4533 38.4669 24.36C38.4669 25.2667 38.1735 27.1467 37.5869 30C37.0002 32.8533 36.7069 34.6933 36.7069 35.52C36.7069 36.3467 37.0535 36.76 37.7469 36.76C38.5735 36.76 39.5735 36.3467 40.7469 35.52C40.8802 33.9467 41.4135 29.8 42.3469 23.08C43.2802 22.7067 44.9602 22.52 47.3869 22.52H48.1469C47.6402 24.52 47.1469 27.4 46.6669 31.16C46.1869 34.92 45.8002 37.5333 45.5069 39C44.9469 41.9333 43.9069 44.32 42.3869 46.16C40.8935 48.0267 38.9335 48.96 36.5069 48.96C35.5469 48.96 34.6669 48.7067 33.8669 48.2C33.0935 47.6933 32.7069 47.04 32.7069 46.24C32.7069 45.1733 33.3602 44.2 34.6669 43.32C35.9735 42.44 37.7335 41.76 39.9469 41.28C40.1869 40.1067 40.3735 38.9733 40.5069 37.88C38.3469 39.4 36.2669 40.16 34.2669 40.16Z" fill="#039700"/>
<path d="M57.1611 40V17.76H48.6011V11.8H73.1211V17.76H64.5611V40H57.1611ZM72.6648 40V25.24C72.6648 24.3067 72.6382 23.3733 72.5848 22.44C72.5315 21.5067 72.4515 20.5867 72.3448 19.68H79.2248L79.9848 25.92H78.9048C79.1715 24.4 79.5982 23.1467 80.1848 22.16C80.7715 21.1733 81.5048 20.44 82.3848 19.96C83.2648 19.48 84.3048 19.24 85.5048 19.24C86.0648 19.24 86.4782 19.2667 86.7448 19.32C87.0382 19.3467 87.3448 19.4267 87.6648 19.56V25.8C86.9982 25.5067 86.4648 25.32 86.0648 25.24C85.6648 25.16 85.1448 25.12 84.5048 25.12C83.4115 25.12 82.5182 25.32 81.8248 25.72C81.1315 26.0933 80.6248 26.68 80.3048 27.48C80.0115 28.28 79.8648 29.3067 79.8648 30.56V40H72.6648ZM89.8133 40V19.68H96.9333V40H89.8133ZM89.6533 16.8V10.4H97.1333V16.8H89.6533ZM101.337 48.64V25.2C101.337 24.2933 101.31 23.3733 101.257 22.44C101.203 21.5067 101.123 20.5867 101.017 19.68H107.897L108.337 23.28H107.937C108.31 22.08 109.137 21.1067 110.417 20.36C111.697 19.6133 113.123 19.24 114.697 19.24C116.457 19.24 118.003 19.6667 119.337 20.52C120.67 21.3467 121.71 22.56 122.457 24.16C123.23 25.7333 123.617 27.6267 123.617 29.84C123.617 32.0267 123.23 33.92 122.457 35.52C121.71 37.12 120.67 38.3467 119.337 39.2C118.003 40.0267 116.457 40.44 114.697 40.44C113.15 40.44 111.75 40.0933 110.497 39.4C109.243 38.68 108.417 37.7333 108.017 36.56H108.457V48.64H101.337ZM112.417 35.16C113.643 35.16 114.617 34.7467 115.337 33.92C116.083 33.0667 116.457 31.7067 116.457 29.84C116.457 27.9733 116.083 26.6267 115.337 25.8C114.617 24.9467 113.643 24.52 112.417 24.52C111.217 24.52 110.243 24.9467 109.497 25.8C108.75 26.6267 108.377 27.9733 108.377 29.84C108.377 31.7067 108.75 33.0667 109.497 33.92C110.243 34.7467 111.217 35.16 112.417 35.16Z" fill="black"/>
</svg>
